<svg width="168" height="42" viewBox="0 0 168 42" fill="none" xmlns="http://www.w3.org/2000/svg">
<rect width="168" height="42.0004" rx="5" fill="black"/>
<g clip-path="url(#clip0_2301_254970)">
<path d="M142.851 0.000136501H25.155C24.726 0.000136501 24.3021 0.000136501 23.8743 0.00223652C23.5161 0.00433654 23.1607 0.0104371 22.7991 0.0155716C22.0135 0.0238686 21.2298 0.0858974 20.4547 0.201119C19.6807 0.318849 18.9309 0.540803 18.2308 0.859475C17.5315 1.18084 16.8925 1.59843 16.337 2.09708C15.7787 2.59433 15.3132 3.16908 14.9586 3.79924C14.603 4.42814 14.3564 5.10207 14.2274 5.79775C14.0971 6.49254 14.027 7.19535 14.0177 7.89987C14.0069 8.2218 14.0057 8.5448 14 8.86678V33.137C14.0057 33.463 14.0069 33.7789 14.0177 34.105C14.027 34.8095 14.0971 35.5122 14.2274 36.207C14.3561 36.9031 14.6026 37.5774 14.9586 38.2065C15.3131 38.8347 15.7786 39.4071 16.337 39.9016C16.8904 40.4024 17.5298 40.8203 18.2308 41.1392C18.9309 41.4587 19.6806 41.682 20.4547 41.8016C21.2299 41.9159 22.0136 41.9779 22.7991 41.9872C23.1607 41.9943 23.5161 41.9984 23.8743 41.9984C24.3021 42.0005 24.726 42.0005 25.155 42.0005H142.851C143.272 42.0005 143.699 42.0005 144.119 41.9984C144.476 41.9984 144.842 41.9943 145.198 41.9872C145.982 41.9784 146.764 41.9164 147.538 41.8016C148.315 41.6812 149.067 41.458 149.77 41.1392C150.471 40.8201 151.11 40.4023 151.662 39.9016C152.219 39.4051 152.686 38.8331 153.045 38.2065C153.398 37.5769 153.642 36.9027 153.769 36.207C153.9 35.5121 153.972 34.8095 153.986 34.105C153.991 33.7789 153.991 33.463 153.991 33.137C154 32.7555 154 32.3761 154 31.9885V10.0132C154 9.62864 154 9.2472 153.991 8.86678C153.991 8.5448 153.991 8.2218 153.986 7.89982C153.972 7.19525 153.9 6.4926 153.769 5.7977C153.642 5.10243 153.398 4.42856 153.045 3.7992C152.323 2.53612 151.178 1.50798 149.77 0.859381C149.067 0.541487 148.314 0.319592 147.538 0.201024C146.764 0.0852952 145.982 0.0232449 145.198 0.0154246C144.842 0.0103006 144.476 0.00414754 144.119 0.00210002C143.699 0 143.272 0 142.851 0V0.000136501Z" fill="white"/>
<path d="M23.8781 41.0808C23.5217 41.0808 23.1738 41.0768 22.8202 41.0696C22.0875 41.061 21.3566 41.0038 20.6334 40.8984C19.959 40.7941 19.3057 40.6002 18.6951 40.3231C18.09 40.0482 17.5382 39.6878 17.0607 39.2556C16.5762 38.8286 16.1729 38.3332 15.8667 37.7893C15.5572 37.2418 15.3429 36.655 15.2315 36.0492C15.1111 35.3983 15.046 34.7402 15.0367 34.0804C15.0292 33.859 15.0195 33.1217 15.0195 33.1217V8.86585C15.0195 8.86585 15.0299 8.13986 15.0367 7.92658C15.0456 7.26789 15.1104 6.61076 15.2304 5.96088C15.342 5.35347 15.5564 4.76494 15.8662 4.21566C16.1713 3.67209 16.5723 3.17639 17.0538 2.7478C17.5348 2.31513 18.0884 1.95286 18.6945 1.6742C19.3037 1.39792 19.9558 1.20539 20.6288 1.10305C21.3544 0.996547 22.0879 0.938965 22.823 0.930789L23.8787 0.917969H144.112L145.18 0.931304C145.909 0.939073 146.635 0.996142 147.354 1.10202C148.034 1.20565 148.693 1.39952 149.309 1.67727C150.523 2.23887 151.511 3.12736 152.135 4.21822C152.439 4.76371 152.651 5.34744 152.761 5.94961C152.882 6.60481 152.95 7.2671 152.964 7.9312C152.968 8.22856 152.968 8.54797 152.968 8.86585C152.977 9.2596 152.977 9.63439 152.977 10.0122V31.9876C152.977 32.369 152.977 32.7413 152.968 33.1165C152.968 33.458 152.968 33.7708 152.963 34.0927C152.949 34.745 152.883 35.3954 152.763 36.0389C152.654 36.649 152.441 37.2405 152.131 37.7924C151.823 38.3305 151.422 38.8215 150.943 39.2474C150.465 39.6819 149.912 40.0444 149.306 40.3211C148.691 40.6004 148.034 40.795 147.354 40.8984C146.631 41.0044 145.9 41.0616 145.168 41.0696C144.825 41.0768 144.466 41.0808 144.118 41.0808L142.849 41.083L23.8781 41.0808Z" fill="black"/>
<path d="M42.98 21.316C42.9925 20.4396 43.2519 19.5803 43.734 18.818C44.216 18.0558 44.9051 17.4153 45.737 16.9563C45.2085 16.2789 44.5113 15.7214 43.7007 15.3281C42.8901 14.9348 41.9886 14.7166 41.0676 14.6907C39.103 14.5056 37.1984 15.7458 36.1972 15.7458C35.1767 15.7458 33.6353 14.7091 31.9755 14.7397C30.9019 14.7709 29.8555 15.0511 28.9384 15.553C28.0213 16.055 27.2648 16.7616 26.7424 17.604C24.4798 21.1199 26.1675 26.287 28.335 29.129C29.4194 30.5206 30.6868 32.0751 32.3451 32.02C33.9679 31.9596 34.5739 31.0913 36.5328 31.0913C38.4734 31.0913 39.0421 32.02 40.734 31.985C42.4754 31.9596 43.5725 30.5871 44.6188 29.1823C45.398 28.1907 45.9976 27.0948 46.3953 25.9352C45.3836 25.5511 44.5203 24.9084 43.913 24.0869C43.3056 23.2655 42.9811 22.3018 42.98 21.316Z" fill="white"/>
<path d="M39.7827 12.8214C40.7321 11.7985 41.1998 10.4837 41.0866 9.15625C39.636 9.29298 38.2962 9.91518 37.3339 10.8989C36.8634 11.3794 36.5031 11.9385 36.2735 12.5441C36.0439 13.1497 35.9495 13.79 35.9958 14.4283C36.7214 14.4351 37.4391 14.2939 38.0951 14.0156C38.751 13.7372 39.328 13.3289 39.7827 12.8214Z" fill="white"/>
<path d="M63.4945 28.4952H57.9567L56.6268 32.0195H54.2812L59.5266 18.9805H61.9636L67.2089 32.0195H64.8233L63.4945 28.4952ZM58.5303 26.8689H62.9199L60.756 21.1492H60.6954L58.5303 26.8689Z" fill="white"/>
<path d="M78.5363 27.2671C78.5363 30.2213 76.7745 32.1193 74.1159 32.1193C73.4424 32.1509 72.7726 32.0117 72.1832 31.7175C71.5938 31.4234 71.1086 30.9862 70.7831 30.4561H70.7328V35.1647H68.5586V22.5133H70.6632V24.0945H70.7031C71.0435 23.5669 71.5369 23.132 72.1308 22.8361C72.7247 22.5401 73.3969 22.3942 74.0759 22.4139C76.7642 22.4139 78.5363 24.3211 78.5363 27.2671ZM76.3015 27.2671C76.3015 25.3424 75.1932 24.0771 73.5023 24.0771C71.8411 24.0771 70.7237 25.3691 70.7237 27.2671C70.7237 29.1825 71.8411 30.4653 73.5023 30.4653C75.1933 30.4653 76.3015 29.2092 76.3015 27.2671Z" fill="white"/>
<path d="M90.1964 27.2671C90.1964 30.2213 88.4347 32.1193 85.776 32.1193C85.1025 32.1509 84.4327 32.0117 83.8433 31.7175C83.2539 31.4234 82.7687 30.9862 82.4433 30.4561H82.393V35.1647H80.2188V22.5133H82.3233V24.0945H82.3633C82.7037 23.5669 83.1971 23.132 83.791 22.8361C84.3849 22.5401 85.057 22.3942 85.736 22.4139C88.4244 22.4139 90.1964 24.3211 90.1964 27.2671ZM87.9616 27.2671C87.9616 25.3424 86.8534 24.0771 85.1625 24.0771C83.5012 24.0771 82.3839 25.3691 82.3839 27.2671C82.3839 29.1825 83.5012 30.4653 85.1625 30.4653C86.8534 30.4653 87.9617 29.2092 87.9617 27.2671H87.9616Z" fill="white"/>
<path d="M97.9014 28.3871C98.0625 29.6801 99.4622 30.5291 101.375 30.5291C103.207 30.5291 104.526 29.6801 104.526 28.5142C104.526 27.5021 103.731 26.8961 101.848 26.4808L99.9649 26.0738C97.2971 25.4954 96.0586 24.3757 96.0586 22.5587C96.0586 20.309 98.2431 18.7637 101.345 18.7637C104.415 18.7637 106.519 20.309 106.59 22.5587H104.396C104.264 21.2574 103.066 20.472 101.314 20.472C99.5626 20.472 98.3641 21.2667 98.3641 22.4233C98.3641 23.3452 99.1296 23.8876 101.002 24.3029L102.603 24.6556C105.584 25.2883 106.822 26.3629 106.822 28.2701C106.822 30.7096 104.657 32.2374 101.214 32.2374C97.9917 32.2374 95.8163 30.7454 95.6758 28.387L97.9014 28.3871Z" fill="white"/>
<path d="M111.514 20.2637V22.5134H113.528V24.0587H111.514V29.2995C111.514 30.1137 111.917 30.4931 112.802 30.4931C113.042 30.4893 113.28 30.4743 113.518 30.4479V31.984C113.12 32.0507 112.715 32.081 112.31 32.0742C110.166 32.0742 109.329 31.3513 109.329 29.5076V24.0587H107.789V22.5134H109.329V20.2637H111.514Z" fill="white"/>
<path d="M114.695 27.2671C114.695 24.276 116.658 22.3965 119.719 22.3965C122.79 22.3965 124.744 24.276 124.744 27.2671C124.744 30.2664 122.8 32.1378 119.719 32.1378C116.639 32.1378 114.695 30.2664 114.695 27.2671ZM122.528 27.2671C122.528 25.2153 121.481 24.0043 119.719 24.0043C117.957 24.0043 116.911 25.2245 116.911 27.2671C116.911 29.3272 117.957 30.5289 119.719 30.5289C121.481 30.5289 122.528 29.3272 122.528 27.2671H122.528Z" fill="white"/>
<path d="M126.535 22.5132H128.609V24.1313H128.659C128.799 23.6259 129.129 23.1793 129.593 22.8666C130.057 22.5538 130.627 22.3939 131.207 22.4138C131.458 22.413 131.707 22.4374 131.952 22.4866V24.3118C131.636 24.225 131.306 24.1852 130.975 24.1939C130.659 24.1824 130.344 24.2323 130.052 24.3404C129.76 24.4484 129.497 24.6119 129.282 24.8197C129.066 25.0275 128.904 25.2746 128.805 25.5441C128.706 25.8136 128.674 26.0991 128.709 26.381V32.0197H126.535L126.535 22.5132Z" fill="white"/>
<path d="M141.977 29.2277C141.684 30.9534 139.812 32.1378 137.416 32.1378C134.334 32.1378 132.422 30.2849 132.422 27.3123C132.422 24.3304 134.345 22.3965 137.324 22.3965C140.255 22.3965 142.098 24.2032 142.098 27.0856V27.7542H134.617V27.8721C134.582 28.222 134.631 28.5744 134.76 28.9061C134.889 29.2377 135.095 29.5409 135.364 29.7956C135.634 30.0503 135.961 30.2506 136.323 30.3832C136.685 30.5158 137.075 30.5777 137.466 30.5648C137.98 30.608 138.496 30.5012 138.936 30.2603C139.377 30.0194 139.719 29.6572 139.912 29.2277L141.977 29.2277ZM134.627 26.3904H139.923C139.942 26.0758 139.889 25.761 139.766 25.4658C139.644 25.1705 139.455 24.9011 139.211 24.6746C138.967 24.448 138.673 24.2692 138.349 24.1492C138.024 24.0293 137.675 23.9709 137.324 23.9777C136.97 23.9758 136.619 24.0368 136.292 24.1573C135.964 24.2778 135.666 24.4553 135.416 24.6796C135.165 24.9039 134.966 25.1706 134.831 25.4642C134.695 25.7579 134.626 26.0727 134.627 26.3904V26.3904Z" fill="white"/>
<path d="M58.2559 9.16727C58.7117 9.13791 59.1691 9.19971 59.5951 9.34822C60.0211 9.49672 60.4051 9.72823 60.7193 10.026C61.0335 10.3238 61.2702 10.6805 61.4122 11.0704C61.5543 11.4602 61.5981 11.8735 61.5407 12.2804C61.5407 14.282 60.3353 15.4325 58.2559 15.4325H55.7344V9.16727H58.2559ZM56.8186 14.5465H58.1348C58.4605 14.5639 58.7865 14.516 59.089 14.4062C59.3914 14.2963 59.6628 14.1273 59.8833 13.9115C60.1039 13.6956 60.268 13.4384 60.3638 13.1584C60.4595 12.8785 60.4845 12.5829 60.437 12.2931C60.4811 12.0046 60.4535 11.7108 60.3563 11.4329C60.2591 11.155 60.0945 10.8998 59.8745 10.6857C59.6545 10.4716 59.3844 10.3038 59.0836 10.1943C58.7829 10.0849 58.4589 10.0365 58.1348 10.0526H56.8186V14.5465Z" fill="white"/>
<path d="M62.7657 13.0665C62.7325 12.7558 62.7721 12.4423 62.8819 12.1461C62.9917 11.8499 63.1693 11.5776 63.4032 11.3466C63.6371 11.1157 63.9222 10.9311 64.2403 10.8048C64.5583 10.6785 64.9023 10.6133 65.2501 10.6133C65.5979 10.6133 65.9418 10.6785 66.2599 10.8048C66.5779 10.9311 66.863 11.1157 67.097 11.3466C67.3309 11.5776 67.5084 11.8499 67.6182 12.1461C67.728 12.4423 67.7676 12.7558 67.7345 13.0665C67.7682 13.3775 67.7291 13.6915 67.6196 13.9881C67.5101 14.2848 67.3327 14.5576 67.0987 14.789C66.8647 15.0205 66.5794 15.2054 66.261 15.332C65.9426 15.4585 65.5983 15.5239 65.2501 15.5239C64.9019 15.5239 64.5575 15.4585 64.2391 15.332C63.9208 15.2054 63.6354 15.0205 63.4015 14.789C63.1675 14.5576 62.99 14.2848 62.8805 13.9881C62.771 13.6915 62.7319 13.3775 62.7657 13.0665ZM66.6651 13.0665C66.6651 12.0416 66.1521 11.4423 65.2518 11.4423C64.3481 11.4423 63.8397 12.0416 63.8397 13.0665C63.8397 14.0996 64.3481 14.6943 65.2518 14.6943C66.1521 14.6943 66.6651 14.0955 66.6651 13.0665H66.6651Z" fill="white"/>
<path d="M74.3387 15.4332H73.2601L72.1713 11.9509H72.089L71.0048 15.4332H69.9365L68.4844 10.7051H69.5389L70.4826 14.3129H70.5603L71.6435 10.7051H72.6409L73.724 14.3129H73.8062L74.7454 10.7051H75.7851L74.3387 15.4332Z" fill="white"/>
<path d="M77.0078 10.7053H78.0087V11.4564H78.0864C78.2182 11.1866 78.4404 10.9605 78.7223 10.8095C79.0041 10.6585 79.3313 10.5902 79.6585 10.614C79.9148 10.5967 80.1722 10.6314 80.4116 10.7155C80.6509 10.7996 80.8661 10.931 81.0413 11.0999C81.2164 11.2688 81.3469 11.4708 81.4232 11.6912C81.4995 11.9115 81.5196 12.1444 81.4819 12.3726V15.4334H80.4422V12.6069C80.4422 11.8471 80.0743 11.4692 79.3054 11.4692C79.1314 11.4619 78.9577 11.4885 78.7961 11.5472C78.6346 11.6058 78.4891 11.695 78.3697 11.8089C78.2502 11.9227 78.1595 12.0583 78.1039 12.2065C78.0483 12.3547 78.0291 12.5119 78.0475 12.6674V15.4334H77.0078L77.0078 10.7053Z" fill="white"/>
<path d="M83.1367 8.85938H84.1764V15.4332H83.1367V8.85938Z" fill="white"/>
<path d="M85.6211 13.0666C85.588 12.7559 85.6276 12.4423 85.7374 12.1461C85.8473 11.85 86.0248 11.5776 86.2588 11.3467C86.4927 11.1157 86.7779 10.9311 87.096 10.8048C87.414 10.6785 87.758 10.6133 88.1058 10.6133C88.4536 10.6133 88.7976 10.6785 89.1157 10.8048C89.4337 10.9311 89.7189 11.1157 89.9528 11.3467C90.1868 11.5776 90.3643 11.85 90.4741 12.1461C90.584 12.4423 90.6236 12.7559 90.5905 13.0666C90.6242 13.3776 90.585 13.6916 90.4755 13.9882C90.366 14.2849 90.1885 14.5577 89.9545 14.7891C89.7205 15.0205 89.4351 15.2055 89.1167 15.332C88.7984 15.4586 88.454 15.524 88.1058 15.524C87.7576 15.524 87.4132 15.4586 87.0948 15.332C86.7765 15.2055 86.4911 15.0205 86.2571 14.7891C86.0231 14.5577 85.8456 14.2849 85.7361 13.9882C85.6266 13.6916 85.5874 13.3776 85.6211 13.0666ZM89.5205 13.0666C89.5205 12.0417 89.0075 11.4424 88.1072 11.4424C87.2035 11.4424 86.6951 12.0417 86.6951 13.0666C86.6951 14.0997 87.2035 14.6944 88.1072 14.6944C89.0075 14.6944 89.5205 14.0956 89.5205 13.0666H89.5205Z" fill="white"/>
<path d="M91.6875 14.0955C91.6875 13.2444 92.3936 12.7538 93.6469 12.6841L95.0739 12.6102V12.2021C95.0739 11.7028 94.706 11.4208 93.9954 11.4208C93.415 11.4208 93.0128 11.612 92.8974 11.9463H91.8909C91.9971 11.1342 92.8483 10.6133 94.0434 10.6133C95.3641 10.6133 96.1091 11.2034 96.1091 12.2021V15.4327H95.1082V14.7682H95.0259C94.859 15.0065 94.6245 15.2009 94.3465 15.3313C94.0685 15.4617 93.7569 15.5236 93.4436 15.5106C93.2224 15.5312 92.9989 15.51 92.7874 15.4484C92.5759 15.3868 92.3812 15.286 92.2157 15.1527C92.0503 15.0194 91.9178 14.8564 91.8268 14.6744C91.7358 14.4923 91.6884 14.2951 91.6875 14.0955ZM95.0739 13.6915V13.2962L93.7875 13.3701C93.0619 13.4136 92.7329 13.6351 92.7329 14.0519C92.7329 14.4775 93.1442 14.7251 93.7098 14.7251C93.8755 14.7402 94.0429 14.7252 94.202 14.681C94.3611 14.6368 94.5087 14.5643 94.636 14.4679C94.7633 14.3714 94.8676 14.253 94.9429 14.1196C95.0181 13.9863 95.0627 13.8407 95.0739 13.6915Z" fill="white"/>
<path d="M97.4766 13.0671C97.4766 11.5731 98.3323 10.6267 99.6634 10.6267C99.9926 10.6131 100.319 10.6838 100.605 10.8307C100.892 10.9776 101.125 11.1945 101.279 11.4562H101.357V8.85938H102.396V15.4332H101.4V14.6862H101.318C101.152 14.9461 100.91 15.1603 100.619 15.3057C100.327 15.4511 99.9967 15.5222 99.6634 15.5111C98.3232 15.5112 97.4766 14.5647 97.4766 13.0671ZM98.5506 13.0671C98.5506 14.07 99.0773 14.6734 99.9582 14.6734C100.834 14.6734 101.376 14.0613 101.376 13.0712C101.376 12.0858 100.829 11.4649 99.9582 11.4649C99.083 11.4649 98.5505 12.0725 98.5505 13.0671H98.5506Z" fill="white"/>
<path d="M106.695 13.0665C106.662 12.7558 106.702 12.4423 106.812 12.1461C106.921 11.8499 107.099 11.5776 107.333 11.3466C107.567 11.1157 107.852 10.9311 108.17 10.8048C108.488 10.6785 108.832 10.6133 109.18 10.6133C109.528 10.6133 109.871 10.6785 110.19 10.8048C110.508 10.9311 110.793 11.1157 111.027 11.3466C111.261 11.5776 111.438 11.8499 111.548 12.1461C111.658 12.4423 111.697 12.7558 111.664 13.0665C111.698 13.3775 111.659 13.6915 111.549 13.9881C111.44 14.2848 111.262 14.5576 111.028 14.789C110.794 15.0205 110.509 15.2054 110.191 15.332C109.872 15.4585 109.528 15.5239 109.18 15.5239C108.832 15.5239 108.487 15.4585 108.169 15.332C107.85 15.2054 107.565 15.0205 107.331 14.789C107.097 14.5576 106.92 14.2848 106.81 13.9881C106.701 13.6915 106.662 13.3775 106.695 13.0665ZM110.595 13.0665C110.595 12.0416 110.082 11.4423 109.181 11.4423C108.278 11.4423 107.769 12.0416 107.769 13.0665C107.769 14.0996 108.278 14.6943 109.181 14.6943C110.082 14.6943 110.595 14.0955 110.595 13.0665Z" fill="white"/>
<path d="M113.059 10.7053H114.059V11.4564H114.137C114.269 11.1866 114.491 10.9605 114.773 10.8095C115.055 10.6585 115.382 10.5902 115.709 10.614C115.966 10.5967 116.223 10.6314 116.462 10.7155C116.702 10.7996 116.917 10.931 117.092 11.0999C117.267 11.2688 117.398 11.4708 117.474 11.6912C117.55 11.9115 117.57 12.1444 117.533 12.3726V15.4334H116.493V12.6069C116.493 11.8471 116.125 11.4692 115.356 11.4692C115.182 11.4619 115.008 11.4885 114.847 11.5472C114.685 11.6058 114.54 11.695 114.42 11.8089C114.301 11.9227 114.21 12.0583 114.155 12.2065C114.099 12.3547 114.08 12.5119 114.098 12.6674V15.4334H113.059V10.7053Z" fill="white"/>
<path d="M123.408 9.52734V10.726H124.55V11.512H123.408V13.9432C123.408 14.4385 123.636 14.6554 124.153 14.6554C124.286 14.655 124.418 14.6478 124.55 14.6338V15.4111C124.363 15.4411 124.174 15.457 123.984 15.4588C122.828 15.4588 122.368 15.0937 122.368 14.1821V11.512H121.531V10.726H122.368V9.52734H123.408Z" fill="white"/>
<path d="M125.969 8.85938H126.999V11.4649H127.082C127.22 11.1926 127.448 10.9652 127.736 10.8136C128.023 10.6621 128.356 10.5937 128.688 10.6179C128.943 10.6055 129.198 10.6437 129.434 10.7298C129.671 10.816 129.884 10.9479 130.057 11.1163C130.23 11.2847 130.36 11.4853 130.437 11.7038C130.514 11.9224 130.536 12.1534 130.502 12.3806V15.4332H129.461V12.6108C129.461 11.8556 129.07 11.4731 128.335 11.4731C128.156 11.46 127.977 11.482 127.808 11.5377C127.64 11.5934 127.487 11.6814 127.361 11.7956C127.235 11.9098 127.138 12.0474 127.077 12.1987C127.016 12.3501 126.993 12.5115 127.008 12.6718V15.4332H125.969L125.969 8.85938Z" fill="white"/>
<path d="M136.567 14.1561C136.426 14.5882 136.12 14.962 135.702 15.2121C135.285 15.4621 134.783 15.5726 134.284 15.524C133.937 15.5322 133.592 15.4726 133.273 15.3491C132.955 15.2257 132.669 15.0415 132.438 14.8094C132.206 14.5772 132.034 14.3025 131.932 14.0045C131.831 13.7065 131.803 13.3922 131.851 13.0836C131.804 12.7739 131.833 12.459 131.934 12.1601C132.035 11.8612 132.207 11.5853 132.437 11.351C132.667 11.1168 132.951 10.9297 133.269 10.8025C133.587 10.6752 133.932 10.6107 134.28 10.6134C135.745 10.6134 136.63 11.5122 136.63 12.9969V13.3225H132.91V13.3748C132.893 13.5483 132.918 13.7229 132.981 13.8875C133.044 14.0521 133.145 14.203 133.277 14.3305C133.41 14.4581 133.57 14.5594 133.748 14.6281C133.926 14.6967 134.119 14.7312 134.313 14.7293C134.561 14.7561 134.813 14.7159 135.037 14.6138C135.26 14.5118 135.444 14.3524 135.566 14.1561L136.567 14.1561ZM132.91 12.6324H135.571C135.584 12.4737 135.56 12.3143 135.5 12.1644C135.44 12.0146 135.347 11.8776 135.224 11.7622C135.102 11.6469 134.955 11.5557 134.791 11.4946C134.627 11.4336 134.451 11.4039 134.274 11.4075C134.094 11.4055 133.916 11.4358 133.749 11.4967C133.582 11.5575 133.431 11.6476 133.304 11.7618C133.177 11.8759 133.076 12.0118 133.009 12.1613C132.941 12.3108 132.907 12.471 132.91 12.6324H132.91Z" fill="white"/>
</g>
<rect x="15.5" y="1.5" width="137" height="39.0004" stroke="black" stroke-width="3"/>
<defs>
<clipPath id="clip0_2301_254970">
<rect x="14" width="140" height="42.0004" fill="white"/>
</clipPath>
</defs>
</svg>
