<svg width="168" height="42" viewBox="0 0 168 42" fill="none" xmlns="http://www.w3.org/2000/svg">
<g clip-path="url(#clip0_2301_254968)">
<rect y="0.259766" width="168" height="41.4815" rx="5" fill="black"/>
<g clip-path="url(#clip1_2301_254968)">
<path fill-rule="evenodd" clip-rule="evenodd" d="M148.813 41.7413H19.1871C16.3283 41.7413 14 39.4034 14 36.5561V5.44495C14 2.58728 16.3283 0.259766 19.1871 0.259766H148.813C151.669 0.259766 154 2.58728 154 5.44495V36.5561C154 39.4034 151.669 41.7413 148.813 41.7413Z" fill="black"/>
<path fill-rule="evenodd" clip-rule="evenodd" d="M148.813 1.08991C151.211 1.08991 153.173 3.04761 153.173 5.44495V36.5561C153.173 38.9534 151.224 40.9111 148.813 40.9111H19.1871C16.7893 40.9111 14.8267 38.9534 14.8267 36.5561V5.44495C14.8267 3.04761 16.7764 1.08991 19.1871 1.08991H148.813ZM148.813 0.259766H19.1871C16.3283 0.259766 14 2.59763 14 5.44495V36.5561C14 39.4137 16.3283 41.7413 19.1871 41.7413H148.813C151.669 41.7413 154 39.4137 154 36.5561V5.44495C154 2.59763 151.669 0.259766 148.813 0.259766Z" fill="white"/>
<path d="M87.751 13.9812C86.8161 13.9812 86.028 13.6528 85.4047 13.0062C84.7866 12.3778 84.4415 11.5115 84.4569 10.627C84.4569 9.68308 84.7763 8.88396 85.4047 8.25036C86.0254 7.60383 86.8135 7.27539 87.7484 7.27539C88.673 7.27539 89.4611 7.60383 90.0947 8.25036C90.7231 8.90465 91.0425 9.70376 91.0425 10.627C91.0322 11.5735 90.7128 12.3726 90.0947 13.0037C89.474 13.6554 88.6859 13.9812 87.751 13.9812ZM59.933 13.9812C59.0187 13.9812 58.2255 13.658 57.5764 13.0192C56.9326 12.383 56.6055 11.5787 56.6055 10.6296C56.6055 9.68049 56.9326 8.8762 57.5764 8.24002C58.2126 7.60124 59.0058 7.27798 59.933 7.27798C60.3863 7.27798 60.8267 7.36849 61.2491 7.55211C61.6638 7.73055 62.0011 7.97365 62.251 8.27105L62.3128 8.34605L61.6148 9.03396L61.5427 8.94862C61.1487 8.47794 60.6207 8.24777 59.9227 8.24777C59.2994 8.24777 58.756 8.47018 58.3079 8.90982C57.8572 9.35205 57.6279 9.93134 57.6279 10.6322C57.6279 11.333 57.8572 11.9123 58.3079 12.3545C58.756 12.7942 59.2994 13.0166 59.9227 13.0166C60.5872 13.0166 61.1461 12.7942 61.5813 12.3545C61.8389 12.0959 61.9986 11.7339 62.0552 11.2761H59.8171V10.3089H63.0159L63.0288 10.3968C63.0519 10.5598 63.0751 10.7279 63.0751 10.883C63.0751 11.7753 62.8073 12.4968 62.2767 13.0295C61.6741 13.6605 60.886 13.9812 59.933 13.9812ZM96.9198 13.8442H95.9334L92.9123 8.98999L92.9381 9.8641V13.8416H91.9517V7.41504H93.0771L93.1081 7.46418L95.9488 12.0365L95.9231 11.1649V7.41504H96.9198V13.8442ZM80.3387 13.8442H79.3394V8.38225H77.6061V7.41504H82.0695V8.38225H80.3361V13.8442H80.3387ZM76.7923 13.8442H75.7955V7.41504H76.7923V13.8442ZM71.1905 13.8442H70.1938V8.38225H68.4605V7.41504H72.9238V8.38225H71.1905V13.8442ZM67.8295 13.8338H64.0075V7.41504H67.8295V8.38225H65.0068V10.146H67.5539V11.1029H65.0068V12.8666H67.8295V13.8338ZM86.1362 12.3416C86.5817 12.789 87.1226 13.014 87.751 13.014C88.3975 13.014 88.9254 12.7942 89.3659 12.3416C89.8037 11.902 90.0252 11.3253 90.0252 10.6296C90.0252 9.93393 89.8037 9.35464 89.3684 8.91758C88.9229 8.47018 88.3794 8.24519 87.7536 8.24519C87.1071 8.24519 86.5792 8.46501 86.1413 8.91758C85.7035 9.35722 85.482 9.93393 85.482 10.6296C85.482 11.3253 85.7009 11.9046 86.1362 12.3416Z" fill="white"/>
<path fill-rule="evenodd" clip-rule="evenodd" d="M84.3649 22.822C81.931 22.822 79.9581 24.6762 79.9581 27.2339C79.9581 29.7683 81.9439 31.6458 84.3649 31.6458C86.7987 31.6458 88.7716 29.7786 88.7716 27.2339C88.7716 24.6762 86.7987 22.822 84.3649 22.822ZM84.3649 29.8976C83.0333 29.8976 81.8872 28.7907 81.8872 27.2235C81.8872 25.6331 83.0359 24.5495 84.3649 24.5495C85.6964 24.5495 86.8425 25.6331 86.8425 27.2235C86.8451 28.8011 85.6964 29.8976 84.3649 29.8976ZM74.7504 22.822C72.3166 22.822 70.3437 24.6762 70.3437 27.2339C70.3437 29.7683 72.3295 31.6458 74.7504 31.6458C77.1843 31.6458 79.1572 29.7786 79.1572 27.2339C79.1572 24.6762 77.1817 22.822 74.7504 22.822ZM74.7504 29.8976C73.4189 29.8976 72.2728 28.7907 72.2728 27.2235C72.2728 25.6331 73.4215 24.5495 74.7504 24.5495C76.082 24.5495 77.2281 25.6331 77.2281 27.2235C77.2281 28.8011 76.082 29.8976 74.7504 29.8976ZM63.31 24.1693V26.0365H67.7734C67.6369 27.0839 67.2917 27.8571 66.7638 28.3873C66.1096 29.0442 65.1 29.7579 63.3203 29.7579C60.5774 29.7579 58.4319 27.5339 58.4319 24.7797C58.4319 22.0254 60.5774 19.8014 63.3203 19.8014C64.8012 19.8014 65.8803 20.3884 66.6813 21.1384L68 19.8143C66.8874 18.7436 65.4065 17.9238 63.3306 17.9238C59.5677 17.9238 56.4102 21.0013 56.4102 24.7693C56.4102 28.5476 59.5652 31.6148 63.3306 31.6148C65.3627 31.6148 66.8874 30.9476 68.0927 29.6907C69.3212 28.4571 69.7102 26.7167 69.7102 25.3124C69.7102 24.8753 69.6767 24.4822 69.6071 24.1486H63.3074C63.31 24.1461 63.31 24.1693 63.31 24.1693ZM110.105 25.6227C109.736 24.6322 108.624 22.8116 106.342 22.8116C104.08 22.8116 102.2 24.5986 102.2 27.2235C102.2 29.7011 104.06 31.6355 106.561 31.6355C108.57 31.6355 109.739 30.4019 110.221 29.6778L108.729 28.6744C108.235 29.4114 107.547 29.895 106.571 29.895C105.585 29.895 104.894 29.445 104.436 28.558L110.311 26.1141C110.311 26.1167 110.105 25.6227 110.105 25.6227ZM104.114 27.0968C104.068 25.3926 105.433 24.5262 106.409 24.5262C107.179 24.5262 107.82 24.9064 108.039 25.4598L104.114 27.0968ZM99.3415 31.3717H101.271V18.41H99.3415V31.3717ZM96.1736 23.8021H96.1041C95.6688 23.2823 94.8421 22.8116 93.7861 22.8116C91.5944 22.8116 89.5751 24.7486 89.5751 27.2365C89.5751 29.714 91.584 31.6277 93.7861 31.6277C94.8292 31.6277 95.6688 31.1545 96.1041 30.6243H96.1736V31.2579C96.1736 32.9415 95.2773 33.8492 93.8325 33.8492C92.6503 33.8492 91.9163 32.9958 91.6175 32.282L89.9409 32.9854C90.4225 34.1492 91.7077 35.5897 93.8299 35.5897C96.0912 35.5897 98.0074 34.2526 98.0074 30.9915V23.0754H96.1839V23.8021C96.1865 23.8021 96.1736 23.8021 96.1736 23.8021ZM93.9587 29.8976C92.6271 29.8976 91.5145 28.7804 91.5145 27.2365C91.5145 25.6796 92.6271 24.5521 93.9587 24.5521C95.2774 24.5521 96.2998 25.6926 96.2998 27.2365C96.3127 28.7804 95.2799 29.8976 93.9587 29.8976ZM119.137 18.41H114.524V31.3717H116.453V26.4632H119.14C121.275 26.4632 123.374 24.909 123.374 22.4418C123.374 19.9746 121.282 18.41 119.137 18.41ZM119.194 24.6529H116.451V20.2048H119.194C120.639 20.2048 121.455 21.4022 121.455 22.4289C121.455 23.4452 120.628 24.6529 119.194 24.6529ZM131.105 22.7987C129.704 22.7987 128.259 23.4219 127.662 24.7797L129.372 25.4934C129.74 24.7797 130.415 24.5366 131.129 24.5366C132.128 24.5366 133.138 25.1365 133.161 26.2072V26.3443C132.816 26.1477 132.058 25.8477 131.152 25.8477C129.305 25.8477 127.433 26.8615 127.433 28.7623C127.433 30.5028 128.947 31.62 130.634 31.62C131.93 31.62 132.643 31.0329 133.089 30.3528H133.158V31.3562H135.018V26.3908C135.018 24.0788 133.307 22.7987 131.105 22.7987ZM130.863 29.8976C130.232 29.8976 129.349 29.5873 129.349 28.7907C129.349 27.7873 130.451 27.4072 131.391 27.4072C132.241 27.4072 132.643 27.5908 133.148 27.8442C133.009 29.008 132.03 29.8873 130.863 29.8976ZM141.802 23.0754L139.587 28.6976H139.517L137.222 23.0754H135.146L138.59 30.9346L136.627 35.3026H138.636L143.934 23.0754H141.802ZM124.437 31.3717H126.366V18.41H124.437V31.3717Z" fill="white"/>
<path fill-rule="evenodd" clip-rule="evenodd" d="M24.776 8.07178C24.4772 8.39504 24.3047 8.889 24.3047 9.53553V32.4667C24.3047 33.1133 24.4772 33.6072 24.7863 33.9175L24.8662 33.9874L37.6613 21.1395V20.8524L24.8558 8.00195L24.776 8.07178Z" fill="url(#paint0_linear_2301_254968)"/>
<path fill-rule="evenodd" clip-rule="evenodd" d="M41.92 25.4349L37.6523 21.1497V20.8497L41.92 16.5645L42.0127 16.6213L47.0608 19.5023C48.5056 20.3195 48.5056 21.6695 47.0608 22.497L42.0127 25.378L41.92 25.4349Z" fill="url(#paint1_linear_2301_254968)"/>
<path fill-rule="evenodd" clip-rule="evenodd" d="M42.0127 25.3783L37.6524 21L24.7773 33.9281C25.2487 34.4349 26.0393 34.4918 26.9228 33.9979L42.0127 25.3783Z" fill="url(#paint2_linear_2301_254968)"/>
<path fill-rule="evenodd" clip-rule="evenodd" d="M42.0127 16.6216L26.9228 8.01501C26.0393 7.50813 25.2461 7.57796 24.7773 8.08484L37.6524 21L42.0127 16.6216Z" fill="url(#paint3_linear_2301_254968)"/>
<path opacity="0.2" fill-rule="evenodd" clip-rule="evenodd" d="M41.9176 25.2852L26.9306 33.8349C26.0935 34.3185 25.3466 34.2848 24.865 33.8452L24.7852 33.9254L24.865 33.9952C25.3466 34.4323 26.0935 34.4685 26.9306 33.9849L42.0206 25.3783L41.9176 25.2852Z" fill="black"/>
<path opacity="0.12" fill-rule="evenodd" clip-rule="evenodd" d="M47.0599 22.3474L41.9062 25.2852L41.999 25.3783L47.047 22.4974C47.7707 22.0836 48.1261 21.5405 48.1261 21C48.0823 21.4965 47.714 21.9672 47.0599 22.3474Z" fill="black"/>
<path opacity="0.25" fill-rule="evenodd" clip-rule="evenodd" d="M26.9214 8.16562L47.0594 19.6532C47.7136 20.023 48.0819 20.5066 48.1385 21.0006C48.1385 20.4601 47.7831 19.917 47.0594 19.5032L26.9214 8.01563C25.4765 7.18548 24.3047 7.87856 24.3047 9.53627V9.68626C24.3047 8.02597 25.4765 7.34582 26.9214 8.16562Z" fill="white"/>
</g>
<rect x="15.5" y="1.75977" width="137" height="38.4815" stroke="black" stroke-width="3"/>
</g>
<defs>
<linearGradient id="paint0_linear_2301_254968" x1="36.5136" y1="9.28812" x2="16.0068" y2="14.7298" gradientUnits="userSpaceOnUse">
<stop stop-color="#00A0FF"/>
<stop offset="0.00657" stop-color="#00A1FF"/>
<stop offset="0.2601" stop-color="#00BEFF"/>
<stop offset="0.5122" stop-color="#00D2FF"/>
<stop offset="0.7604" stop-color="#00DFFF"/>
<stop offset="1" stop-color="#00E3FF"/>
</linearGradient>
<linearGradient id="paint1_linear_2301_254968" x1="48.945" y1="20.9997" x2="23.9548" y2="20.9997" gradientUnits="userSpaceOnUse">
<stop stop-color="#FFE000"/>
<stop offset="0.4087" stop-color="#FFBD00"/>
<stop offset="0.7754" stop-color="#FFA500"/>
<stop offset="1" stop-color="#FF9C00"/>
</linearGradient>
<linearGradient id="paint2_linear_2301_254968" x1="39.6417" y1="23.3824" x2="23.0877" y2="51.1299" gradientUnits="userSpaceOnUse">
<stop stop-color="#FF3A44"/>
<stop offset="1" stop-color="#C31162"/>
</linearGradient>
<linearGradient id="paint3_linear_2301_254968" x1="21.5353" y1="0.444631" x2="28.9207" y2="12.8371" gradientUnits="userSpaceOnUse">
<stop stop-color="#32A071"/>
<stop offset="0.0685" stop-color="#2DA771"/>
<stop offset="0.4762" stop-color="#15CF74"/>
<stop offset="0.8009" stop-color="#06E775"/>
<stop offset="1" stop-color="#00F076"/>
</linearGradient>
<clipPath id="clip0_2301_254968">
<rect y="0.259766" width="168" height="41.4815" rx="5" fill="white"/>
</clipPath>
<clipPath id="clip1_2301_254968">
<rect x="14" y="0.259766" width="140" height="41.4815" fill="white"/>
</clipPath>
</defs>
</svg>
